<?xml version="1.0" encoding="iso-8859-1"?>
<!-- Generator: Adobe Illustrator 19.0.0, SVG Export Plug-In . SVG Version: 6.00 Build 0)  -->
<svg version="1.1" id="Layer_1" xmlns="http://www.w3.org/2000/svg" xmlns:xlink="http://www.w3.org/1999/xlink" x="0px" y="0px"
	 viewBox="0 0 503.467 503.467" style="enable-background:new 0 0 503.467 503.467;" xml:space="preserve">
<g transform="translate(1 27)">
	<path style="fill:#ECF4F7;" d="M498.2,233.267v204.8c0,18.773-15.36,34.133-34.133,34.133H37.4
		c-18.773,0-34.133-15.36-34.133-34.133v-204.8c0-18.773,15.36-34.133,34.133-34.133h290.133h136.533
		C482.84,199.133,498.2,214.493,498.2,233.267"/>
	<path style="fill:#AAB1BA;" d="M54.467,250.333H88.6V267.4H54.467V250.333L54.467,250.333z M54.467,301.533H88.6V318.6H54.467
		V301.533L54.467,301.533z M54.467,352.733H88.6V369.8H54.467V352.733L54.467,352.733z M54.467,403.933H88.6V421H54.467V403.933
		L54.467,403.933z M122.733,403.933h187.733V421H122.733V403.933L122.733,403.933z M344.6,403.933h34.133V421H344.6V403.933
		L344.6,403.933z M412.867,403.933H447V421h-34.133V403.933L412.867,403.933z M259.267,352.733H293.4V369.8h-34.133V352.733
		L259.267,352.733z M327.533,352.733h34.133V369.8h-34.133V352.733L327.533,352.733z M395.8,352.733H447V369.8h-51.2V352.733
		L395.8,352.733z M122.733,352.733h34.133V369.8h-34.133V352.733L122.733,352.733z M191,352.733h34.133V369.8H191V352.733
		L191,352.733z M259.267,301.533H293.4V318.6h-34.133V301.533L259.267,301.533z M327.533,301.533h34.133V318.6h-34.133V301.533
		L327.533,301.533z M395.8,301.533H447V318.6h-51.2V301.533L395.8,301.533z M122.733,301.533h34.133V318.6h-34.133V301.533
		L122.733,301.533z M191,301.533h34.133V318.6H191V301.533L191,301.533z M259.267,250.333H293.4V267.4h-34.133V250.333
		L259.267,250.333z M327.533,250.333h34.133V267.4h-34.133V250.333L327.533,250.333z M395.8,250.333H447V267.4h-51.2V250.333
		L395.8,250.333z M122.733,250.333h34.133V267.4h-34.133V250.333L122.733,250.333z M191,250.333h34.133V267.4H191V250.333
		L191,250.333z"/>
</g>
<path style="fill:#51565F;" d="M465.067,503.467H38.4c-21.333,0-38.4-17.067-38.4-38.4v-204.8c0-21.333,17.067-38.4,38.4-38.4h256
	c2.56,0,4.267,1.707,4.267,4.267s-1.707,4.267-4.267,4.267h-256c-16.213,0-29.867,13.653-29.867,29.867v204.8
	c0,16.213,13.653,29.867,29.867,29.867h426.667c16.213,0,29.867-13.653,29.867-29.867v-204.8c0-16.213-13.653-29.867-29.867-29.867
	H328.533c-2.56,0-4.267-1.707-4.267-4.267v-102.4c0-16.213-13.653-29.867-29.867-29.867s-29.867,13.653-29.867,29.867
	c0,21.333-17.067,38.4-38.4,38.4s-38.4-17.067-38.4-38.4V4.267C187.733,1.707,189.44,0,192,0s4.267,1.707,4.267,4.267v119.467
	c0,16.213,13.653,29.867,29.867,29.867S256,139.947,256,123.733c0-21.333,17.067-38.4,38.4-38.4c21.333,0,38.4,17.067,38.4,38.4
	v98.133h132.267c21.333,0,38.4,17.067,38.4,38.4v204.8C503.467,486.4,486.4,503.467,465.067,503.467z M448,452.267h-34.133
	c-2.56,0-4.267-1.707-4.267-4.267v-17.067c0-2.56,1.707-4.267,4.267-4.267s4.267,1.707,4.267,4.267v12.8h25.6v-12.8
	c0-2.56,1.707-4.267,4.267-4.267s4.267,1.707,4.267,4.267V448C452.267,450.56,450.56,452.267,448,452.267z M379.733,452.267H345.6
	c-2.56,0-4.267-1.707-4.267-4.267v-17.067c0-2.56,1.707-4.267,4.267-4.267s4.267,1.707,4.267,4.267v12.8h25.6v-12.8
	c0-2.56,1.707-4.267,4.267-4.267c2.56,0,4.267,1.707,4.267,4.267V448C384,450.56,382.293,452.267,379.733,452.267z M311.467,452.267
	H123.733c-2.56,0-4.267-1.707-4.267-4.267v-17.067c0-2.56,1.707-4.267,4.267-4.267c2.56,0,4.267,1.707,4.267,4.267v12.8h179.2v-12.8
	c0-2.56,1.707-4.267,4.267-4.267s4.267,1.707,4.267,4.267V448C315.733,450.56,314.027,452.267,311.467,452.267z M89.6,452.267
	H55.467c-2.56,0-4.267-1.707-4.267-4.267v-17.067c0-2.56,1.707-4.267,4.267-4.267c2.56,0,4.267,1.707,4.267,4.267v12.8h25.6v-12.8
	c0-2.56,1.707-4.267,4.267-4.267c2.56,0,4.267,1.707,4.267,4.267V448C93.867,450.56,92.16,452.267,89.6,452.267z M448,401.067h-51.2
	c-2.56,0-4.267-1.707-4.267-4.267v-17.067c0-2.56,1.707-4.267,4.267-4.267s4.267,1.707,4.267,4.267v12.8h42.667v-12.8
	c0-2.56,1.707-4.267,4.267-4.267s4.267,1.707,4.267,4.267V396.8C452.267,399.36,450.56,401.067,448,401.067z M362.667,401.067
	h-34.133c-2.56,0-4.267-1.707-4.267-4.267v-17.067c0-2.56,1.707-4.267,4.267-4.267s4.267,1.707,4.267,4.267v12.8h25.6v-12.8
	c0-2.56,1.707-4.267,4.267-4.267s4.267,1.707,4.267,4.267V396.8C366.933,399.36,365.227,401.067,362.667,401.067z M294.4,401.067
	h-34.133c-2.56,0-4.267-1.707-4.267-4.267v-17.067c0-2.56,1.707-4.267,4.267-4.267s4.267,1.707,4.267,4.267v12.8h25.6v-12.8
	c0-2.56,1.707-4.267,4.267-4.267s4.267,1.707,4.267,4.267V396.8C298.667,399.36,296.96,401.067,294.4,401.067z M226.133,401.067H192
	c-2.56,0-4.267-1.707-4.267-4.267v-17.067c0-2.56,1.707-4.267,4.267-4.267s4.267,1.707,4.267,4.267v12.8h25.6v-12.8
	c0-2.56,1.707-4.267,4.267-4.267s4.267,1.707,4.267,4.267V396.8C230.4,399.36,228.693,401.067,226.133,401.067z M157.867,401.067
	h-34.133c-2.56,0-4.267-1.707-4.267-4.267v-17.067c0-2.56,1.707-4.267,4.267-4.267c2.56,0,4.267,1.707,4.267,4.267v12.8h25.6v-12.8
	c0-2.56,1.707-4.267,4.267-4.267c2.56,0,4.267,1.707,4.267,4.267V396.8C162.133,399.36,160.427,401.067,157.867,401.067z
	 M89.6,401.067H55.467c-2.56,0-4.267-1.707-4.267-4.267v-17.067c0-2.56,1.707-4.267,4.267-4.267c2.56,0,4.267,1.707,4.267,4.267
	v12.8h25.6v-12.8c0-2.56,1.707-4.267,4.267-4.267c2.56,0,4.267,1.707,4.267,4.267V396.8C93.867,399.36,92.16,401.067,89.6,401.067z
	 M448,349.867h-51.2c-2.56,0-4.267-1.707-4.267-4.267v-17.067c0-2.56,1.707-4.267,4.267-4.267s4.267,1.707,4.267,4.267v12.8h42.667
	v-12.8c0-2.56,1.707-4.267,4.267-4.267s4.267,1.707,4.267,4.267V345.6C452.267,348.16,450.56,349.867,448,349.867z M362.667,349.867
	h-34.133c-2.56,0-4.267-1.707-4.267-4.267v-17.067c0-2.56,1.707-4.267,4.267-4.267s4.267,1.707,4.267,4.267v12.8h25.6v-12.8
	c0-2.56,1.707-4.267,4.267-4.267s4.267,1.707,4.267,4.267V345.6C366.933,348.16,365.227,349.867,362.667,349.867z M294.4,349.867
	h-34.133c-2.56,0-4.267-1.707-4.267-4.267v-17.067c0-2.56,1.707-4.267,4.267-4.267s4.267,1.707,4.267,4.267v12.8h25.6v-12.8
	c0-2.56,1.707-4.267,4.267-4.267s4.267,1.707,4.267,4.267V345.6C298.667,348.16,296.96,349.867,294.4,349.867z M226.133,349.867H192
	c-2.56,0-4.267-1.707-4.267-4.267v-17.067c0-2.56,1.707-4.267,4.267-4.267s4.267,1.707,4.267,4.267v12.8h25.6v-12.8
	c0-2.56,1.707-4.267,4.267-4.267s4.267,1.707,4.267,4.267V345.6C230.4,348.16,228.693,349.867,226.133,349.867z M157.867,349.867
	h-34.133c-2.56,0-4.267-1.707-4.267-4.267v-17.067c0-2.56,1.707-4.267,4.267-4.267c2.56,0,4.267,1.707,4.267,4.267v12.8h25.6v-12.8
	c0-2.56,1.707-4.267,4.267-4.267c2.56,0,4.267,1.707,4.267,4.267V345.6C162.133,348.16,160.427,349.867,157.867,349.867z
	 M89.6,349.867H55.467c-2.56,0-4.267-1.707-4.267-4.267v-17.067c0-2.56,1.707-4.267,4.267-4.267c2.56,0,4.267,1.707,4.267,4.267
	v12.8h25.6v-12.8c0-2.56,1.707-4.267,4.267-4.267c2.56,0,4.267,1.707,4.267,4.267V345.6C93.867,348.16,92.16,349.867,89.6,349.867z
	 M448,298.667h-51.2c-2.56,0-4.267-1.707-4.267-4.267v-17.067c0-2.56,1.707-4.267,4.267-4.267s4.267,1.707,4.267,4.267v12.8h42.667
	v-12.8c0-2.56,1.707-4.267,4.267-4.267s4.267,1.707,4.267,4.267V294.4C452.267,296.96,450.56,298.667,448,298.667z M362.667,298.667
	h-34.133c-2.56,0-4.267-1.707-4.267-4.267v-17.067c0-2.56,1.707-4.267,4.267-4.267s4.267,1.707,4.267,4.267v12.8h25.6v-12.8
	c0-2.56,1.707-4.267,4.267-4.267s4.267,1.707,4.267,4.267V294.4C366.933,296.96,365.227,298.667,362.667,298.667z M294.4,298.667
	h-34.133c-2.56,0-4.267-1.707-4.267-4.267v-17.067c0-2.56,1.707-4.267,4.267-4.267s4.267,1.707,4.267,4.267v12.8h25.6v-12.8
	c0-2.56,1.707-4.267,4.267-4.267s4.267,1.707,4.267,4.267V294.4C298.667,296.96,296.96,298.667,294.4,298.667z M226.133,298.667H192
	c-2.56,0-4.267-1.707-4.267-4.267v-17.067c0-2.56,1.707-4.267,4.267-4.267s4.267,1.707,4.267,4.267v12.8h25.6v-12.8
	c0-2.56,1.707-4.267,4.267-4.267s4.267,1.707,4.267,4.267V294.4C230.4,296.96,228.693,298.667,226.133,298.667z M157.867,298.667
	h-34.133c-2.56,0-4.267-1.707-4.267-4.267v-17.067c0-2.56,1.707-4.267,4.267-4.267c2.56,0,4.267,1.707,4.267,4.267v12.8h25.6v-12.8
	c0-2.56,1.707-4.267,4.267-4.267c2.56,0,4.267,1.707,4.267,4.267V294.4C162.133,296.96,160.427,298.667,157.867,298.667z
	 M89.6,298.667H55.467c-2.56,0-4.267-1.707-4.267-4.267v-17.067c0-2.56,1.707-4.267,4.267-4.267c2.56,0,4.267,1.707,4.267,4.267
	v12.8h25.6v-12.8c0-2.56,1.707-4.267,4.267-4.267c2.56,0,4.267,1.707,4.267,4.267V294.4C93.867,296.96,92.16,298.667,89.6,298.667z"
	/>
<g>
</g>
<g>
</g>
<g>
</g>
<g>
</g>
<g>
</g>
<g>
</g>
<g>
</g>
<g>
</g>
<g>
</g>
<g>
</g>
<g>
</g>
<g>
</g>
<g>
</g>
<g>
</g>
<g>
</g>
</svg>
